<svg xmlns="http://www.w3.org/2000/svg" viewBox="0 0 32 20">
  <rect width="32" height="20" fill="#fff"/>
  <g transform="translate(16 10) rotate(-32)">
    <path d="M0-4.5a4.5 4.5 0 0 1 0 9 2.25 2.25 0 0 1 0-4.5 2.25 2.25 0 0 0 0-4.5z" fill="#cd2e3a"/>
    <path d="M0-4.5a2.25 2.25 0 0 1 0 4.5 2.25 2.25 0 0 0 0 4.5 4.5 4.5 0 0 1 0-9z" fill="#0047a0"/>
  </g>
  <g stroke="#111" stroke-width="1" stroke-linecap="square">
    <path d="M6 4.2h5M6 6h5M6 7.8h5M21 12.2h5M21 14h5M21 15.8h5"/>
    <path d="M21 4.2h5M21 7.8h5M6 12.2h5M6 15.8h5"/>
    <path d="M23.2 6h2.8M6 14h2M9.4 14H11"/>
  </g>
</svg>
